<svg xmlns="http://www.w3.org/2000/svg" viewBox="0 0 800 1000" role="img" aria-labelledby="title description">
  <title id="title">Small Team, Bigger Output publication cover</title>
  <desc id="description">An editorial clay cover showing approved product truth and approved assets feeding content creation, human review, and approved output.</desc>
  <rect width="800" height="1000" fill="#78352F"/>
  <path d="M0 0h800v74H0z" fill="#1D2827" opacity=".22"/>
  <path d="M612 0h188v1000H612z" fill="#A9523E"/>
  <path d="M636 0h164v1000H636z" fill="#C87552" opacity=".44"/>
  <g fill="none" stroke="#173D4D" stroke-width="7" stroke-linejoin="round">
    <path d="M206 553h30v62h28"/>
    <path d="M206 677h30v-62h28"/>
    <path d="M394 615h38"/>
    <path d="M566 615h52"/>
  </g>
  <g fill="#173D4D">
    <path d="M258 604l18 11-18 11z"/>
    <path d="M426 604l18 11-18 11z"/>
    <path d="M612 604l18 11-18 11z"/>
  </g>
  <g fill="#F6EFE5" stroke="#173D4D" stroke-width="5">
    <rect x="58" y="514" width="148" height="78"/>
    <rect x="58" y="638" width="148" height="78"/>
    <rect x="274" y="564" width="120" height="102" rx="8"/>
    <rect x="444" y="564" width="122" height="102" rx="51"/>
    <rect x="630" y="564" width="130" height="102"/>
  </g>
  <g fill="#173D4D" font-family="Arial, Helvetica, sans-serif" font-weight="700">
    <text x="77" y="548" font-size="14" letter-spacing="1">APPROVED</text><text x="76" y="572" font-size="14" letter-spacing="1">PRODUCT TRUTH</text>
    <text x="70" y="672" font-size="14" letter-spacing="1">APPROVED</text><text x="85" y="696" font-size="14" letter-spacing="1">ASSETS</text>
    <text x="297" y="607" font-size="14" letter-spacing="1">CREATE</text><text x="295" y="631" font-size="14" letter-spacing="1">+ ADAPT</text>
    <text x="464" y="607" font-size="14" letter-spacing="1">HUMAN</text><text x="463" y="631" font-size="14" letter-spacing="1">REVIEW</text>
    <text x="646" y="607" font-size="14" letter-spacing="1">APPROVED</text><text x="659" y="631" font-size="14" letter-spacing="1">OUTPUT</text>
  </g>
  <circle cx="592" cy="615" r="16" fill="#E6D2B9" stroke="#173D4D" stroke-width="5"/>
  <path d="M583 615l7 7 13-16" fill="none" stroke="#173D4D" stroke-width="4" stroke-linecap="round" stroke-linejoin="round"/>
  <g fill="#F6EFE5">
    <text x="58" y="154" font-family="Arial, Helvetica, sans-serif" font-size="17" font-weight="700" letter-spacing="4">CONTENT OPERATIONS</text>
    <text x="54" y="267" font-family="Georgia, 'Times New Roman', serif" font-size="91" font-weight="700">SMALL TEAM,</text>
    <text x="54" y="361" font-family="Georgia, 'Times New Roman', serif" font-size="91" font-weight="700">BIGGER</text>
    <text x="54" y="455" font-family="Georgia, 'Times New Roman', serif" font-size="91" font-weight="700">OUTPUT</text>
    <text x="58" y="872" font-family="Arial, Helvetica, sans-serif" font-size="24" font-weight="600">Better content. Fewer fire drills.</text>
    <text x="58" y="907" font-family="Arial, Helvetica, sans-serif" font-size="24" font-weight="600">More useful work from the team</text>
    <text x="58" y="940" font-family="Arial, Helvetica, sans-serif" font-size="24" font-weight="600">already in place.</text>
    <text x="58" y="978" font-family="Arial, Helvetica, sans-serif" font-size="17" font-weight="700" letter-spacing="3">SUDEEP ARYA</text>
  </g>
  <path d="M58 832h486" stroke="#E6D2B9" stroke-width="3"/>
</svg>
