<svg xmlns="http://www.w3.org/2000/svg" width="1200" height="630" viewBox="0 0 1200 630" role="img" aria-labelledby="title desc">
  <title id="title">Running Before Crawling</title>
  <desc id="desc">Social preview for Sudeep Arya's whitepaper about AI economics, workflow design, and leadership decisions.</desc>
  <rect width="1200" height="630" fill="#06101b"/>
  <path d="M0 510C220 430 300 540 510 460S850 350 1200 430V630H0Z" fill="#0d1d2a"/>
  <path d="M760 0h440v630H880c-18-170 40-270-85-390C737 155 718 75 760 0Z" fill="#8356d8" opacity=".18"/>
  <circle cx="1030" cy="125" r="106" fill="none" stroke="#19d3c5" stroke-width="2" opacity=".62"/>
  <circle cx="1030" cy="125" r="74" fill="none" stroke="#b7774a" stroke-width="2" opacity=".8"/>
  <path d="M865 125h330M1030 -40v330M955 50l150 150M1105 50 955 200" stroke="#19d3c5" stroke-width="2" opacity=".35"/>
  <rect x="72" y="68" width="70" height="70" rx="35" fill="#19d3c5"/>
  <text x="88" y="114" fill="#06101b" font-family="Arial, Helvetica, sans-serif" font-size="22" font-weight="800">SA</text>
  <text x="72" y="195" fill="#19d3c5" font-family="Arial, Helvetica, sans-serif" font-size="18" font-weight="700">WHITEPAPER</text>
  <text x="72" y="292" fill="#ffffff" font-family="Arial, Helvetica, sans-serif" font-size="62" font-weight="800">RUNNING</text>
  <text x="72" y="366" fill="#ffffff" font-family="Arial, Helvetica, sans-serif" font-size="62" font-weight="800">BEFORE</text>
  <text x="72" y="440" fill="#ffffff" font-family="Arial, Helvetica, sans-serif" font-size="62" font-weight="800">CRAWLING</text>
  <rect x="76" y="492" width="92" height="4" fill="#b7774a"/>
  <text x="72" y="540" fill="#d9e4e7" font-family="Arial, Helvetica, sans-serif" font-size="22">AI economics, workflow design, verified value</text>
  <text x="850" y="557" fill="#19d3c5" font-family="Arial, Helvetica, sans-serif" font-size="18" font-weight="700">SUDEEP ARYA</text>
</svg>
