<svg xmlns="http://www.w3.org/2000/svg" width="1200" height="630" viewBox="0 0 1200 630" role="img" aria-labelledby="title desc">
  <title id="title">Sudeep Arya social preview</title>
  <desc id="desc">A refined dark commerce monogram card for Sudeep Arya.</desc>
  <defs>
    <linearGradient id="bg" x1="0" y1="0" x2="1" y2="1">
      <stop offset="0" stop-color="#06101b"/>
      <stop offset="0.48" stop-color="#081722"/>
      <stop offset="1" stop-color="#102436"/>
    </linearGradient>
    <radialGradient id="tealGlow" cx="78%" cy="45%" r="54%">
      <stop offset="0" stop-color="#19d3c5" stop-opacity="0.26"/>
      <stop offset="0.42" stop-color="#19d3c5" stop-opacity="0.08"/>
      <stop offset="1" stop-color="#19d3c5" stop-opacity="0"/>
    </radialGradient>
    <radialGradient id="copperGlow" cx="87%" cy="84%" r="46%">
      <stop offset="0" stop-color="#b7774a" stop-opacity="0.22"/>
      <stop offset="0.46" stop-color="#b7774a" stop-opacity="0.08"/>
      <stop offset="1" stop-color="#b7774a" stop-opacity="0"/>
    </radialGradient>
    <filter id="softShadow" x="-20%" y="-20%" width="140%" height="140%">
      <feDropShadow dx="0" dy="22" stdDeviation="28" flood-color="#000000" flood-opacity="0.34"/>
    </filter>
    <filter id="texture" x="0" y="0" width="100%" height="100%">
      <feTurbulence type="fractalNoise" baseFrequency="0.85" numOctaves="2" seed="11"/>
      <feColorMatrix type="saturate" values="0"/>
      <feComponentTransfer>
        <feFuncA type="table" tableValues="0 0.035"/>
      </feComponentTransfer>
    </filter>
  </defs>

  <rect width="1200" height="630" fill="url(#bg)"/>
  <rect width="1200" height="630" fill="url(#tealGlow)"/>
  <rect width="1200" height="630" fill="url(#copperGlow)"/>
  <rect width="1200" height="630" filter="url(#texture)" opacity="0.48"/>

  <g opacity="0.34" fill="none" stroke-linecap="round" stroke-linejoin="round">
    <path d="M710 132h220c58 0 104 47 104 105v156" stroke="#19d3c5" stroke-width="2"/>
    <path d="M760 500h-92c-58 0-104-47-104-105V230" stroke="#b7774a" stroke-width="2"/>
    <path d="M760 198h132c28 0 50 22 50 50v112" stroke="#fff8eb" stroke-opacity="0.24" stroke-width="1.5"/>
    <path d="M628 420h-84c-27 0-49-22-49-49v-84" stroke="#fff8eb" stroke-opacity="0.2" stroke-width="1.5"/>
    <circle cx="710" cy="132" r="5" fill="#19d3c5" stroke="none"/>
    <circle cx="1034" cy="393" r="5" fill="#19d3c5" stroke="none"/>
    <circle cx="760" cy="500" r="5" fill="#b7774a" stroke="none"/>
    <circle cx="564" cy="230" r="5" fill="#b7774a" stroke="none"/>
  </g>

  <g transform="translate(780 98)" filter="url(#softShadow)">
    <rect x="0" y="0" width="320" height="320" rx="46" fill="#07131f" stroke="#ffffff" stroke-opacity="0.12"/>
    <rect x="1" y="1" width="318" height="318" rx="45" fill="none" stroke="#19d3c5" stroke-opacity="0.22"/>
    <g transform="translate(62 43) scale(3.1)" fill="none" stroke-linecap="round" stroke-linejoin="round">
      <path d="M45 13H27c-8 0-13 4-13 10 0 7 7 9 17 10 10 1 16 4 16 10 0 7-6 10-16 10H17" stroke="#06101b" stroke-width="12"/>
      <path d="M45 13H27c-8 0-13 4-13 10 0 7 7 9 17 10 10 1 16 4 16 10 0 7-6 10-16 10H17" stroke="#fff8eb" stroke-width="7"/>
      <path d="M22 53 35 11l16 42" stroke="#06101b" stroke-width="12"/>
      <path d="M22 53 35 11l16 42" stroke="#19d3c5" stroke-width="7"/>
      <path d="M29 39h16" stroke="#06101b" stroke-width="10"/>
      <path d="M29 39h16" stroke="#b7774a" stroke-width="5"/>
      <path d="M35 11l5 7h-10z" fill="#19d3c5" stroke="#06101b" stroke-width="2"/>
    </g>
  </g>

  <g transform="translate(92 126)">
    <text x="0" y="0" fill="#19d3c5" font-family="Liberation Sans, Arial, sans-serif" font-size="22" font-weight="700" letter-spacing="3">SUDEEP ARYA</text>
    <text x="0" y="92" fill="#fff8eb" font-family="DejaVu Serif, Georgia, serif" font-size="58" font-weight="700">Commerce leadership</text>
    <text x="0" y="160" fill="#fff8eb" font-family="DejaVu Serif, Georgia, serif" font-size="58" font-weight="700">built from the work.</text>
    <text x="0" y="228" fill="#c8d2da" font-family="Liberation Sans, Arial, sans-serif" font-size="25">Amazon, DTC, marketplaces, retail media,</text>
    <text x="0" y="264" fill="#c8d2da" font-family="Liberation Sans, Arial, sans-serif" font-size="25">analytics, AI-assisted operations, and transformation.</text>
  </g>

  <g transform="translate(92 520)" font-family="Liberation Sans, Arial, sans-serif" font-size="18" font-weight="700" letter-spacing="2">
    <text x="0" y="0" fill="#fff8eb" opacity="0.82">SUDEEPARYA.COM</text>
    <path d="M190 -7h62" stroke="#19d3c5" stroke-width="3" stroke-linecap="round"/>
    <path d="M264 -7h42" stroke="#b7774a" stroke-width="3" stroke-linecap="round"/>
  </g>
</svg>
