<svg xmlns="http://www.w3.org/2000/svg" width="850" height="1100" viewBox="0 0 850 1100" role="img" aria-labelledby="title desc">
  <title id="title">Running Before Crawling</title><desc id="desc">Board and C-Suite Executive Edition by Sudeep Arya. Workflow and truth pass through cost and a human gate to produce a verified outcome.</desc>
  <rect width="850" height="1100" fill="#06101b"/><circle cx="715" cy="175" r="220" fill="#0d4548" opacity=".48"/>
  <text x="72" y="70" fill="#20d6ca" font-family="Arial,sans-serif" font-size="15" font-weight="700" letter-spacing="2">BOARD AND C-SUITE EXECUTIVE EDITION</text>
  <text x="72" y="184" fill="#fff" font-family="Georgia,serif" font-size="74" font-weight="700"><tspan x="72">RUNNING</tspan><tspan x="72" dy="78">BEFORE</tspan><tspan x="72" dy="78">CRAWLING</tspan></text>
  <rect x="72" y="425" width="90" height="5" fill="#20d6ca"/>
  <text x="72" y="480" fill="#d9e3e5" font-family="Arial,sans-serif" font-size="24"><tspan x="72">Why AI costs balloon when leadership automates</tspan><tspan x="72" dy="34">before it understands the work</tspan></text>
  <g transform="translate(72 620)" font-family="Arial,sans-serif"><rect width="188" height="58" rx="7" fill="#102b3a" stroke="#1a5b66"/><text x="18" y="23" fill="#20d6ca" font-size="11" font-weight="700">WORKFLOW</text><text x="18" y="42" fill="#b9c7cb" font-size="10">Document the work</text><rect y="74" width="188" height="58" rx="7" fill="#102b3a" stroke="#1a5b66"/><text x="18" y="97" fill="#20d6ca" font-size="11" font-weight="700">TRUTH</text><text x="18" y="116" fill="#b9c7cb" font-size="10">Own the source</text><rect y="148" width="188" height="58" rx="7" fill="#102b3a" stroke="#1a5b66"/><text x="18" y="171" fill="#20d6ca" font-size="11" font-weight="700">HUMAN GATE</text><text x="18" y="190" fill="#b9c7cb" font-size="10">Review and escalate</text></g>
  <path d="M270 717H345M270 768H345M270 819H345" stroke="#20d6ca" stroke-width="3"/>
  <path d="M390 650L470 700V800L390 850L310 800V700Z" fill="#1b1b1e" stroke="#c47d45" stroke-width="3"/><text x="390" y="742" fill="#d99a66" font-family="Arial,sans-serif" font-size="16" font-weight="700" text-anchor="middle">FULL COST</text><text x="390" y="770" fill="#b9c7cb" font-family="Arial,sans-serif" font-size="11" text-anchor="middle">Measure the whole system</text>
  <path d="M470 750H520" stroke="#20d6ca" stroke-width="3" marker-end="url(#arrow)"/><defs><marker id="arrow" viewBox="0 0 10 10" refX="9" refY="5" markerWidth="7" markerHeight="7" orient="auto-start-reverse"><path d="M0 0L10 5L0 10Z" fill="#20d6ca"/></marker></defs>
  <rect x="525" y="682" width="248" height="136" rx="16" fill="#fff"/><text x="550" y="722" fill="#0c817a" font-family="Arial,sans-serif" font-size="13" font-weight="700" letter-spacing="1">VERIFIED</text><text x="550" y="760" fill="#071521" font-family="Georgia,serif" font-size="34" font-weight="700">OUTCOME</text><text x="550" y="790" fill="#52606f" font-family="Arial,sans-serif" font-size="12">Quality, policy, and completion met</text>
  <line x1="72" y1="960" x2="778" y2="960" stroke="#57717b"/><text x="72" y="1008" fill="#fff" font-family="Arial,sans-serif" font-size="27" font-weight="700">SUDEEP ARYA</text><text x="72" y="1040" fill="#20d6ca" font-family="Arial,sans-serif" font-size="15">Commerce Transformation Operator · July 2026</text>
</svg>
